# xmcd
#
# Track frame offsets: 
#        182
#        13580
#        24180
#        38517
#        51170
#        58820
#        71507
#        83750
#        92027
#        102532
#        112920
#        127437
#        136610
#        149875
#        159975
#        169317
#        179950
#        194290
#        206157
#        216617
#        226820
#        238352
#
# Disc length: 3371 seconds
#
# Revision: 3
# Processed by: cddbd v1.5.2PL0 Copyright (c) Steve Scherf et al.
# Submitted via: ExactAudioCopy v0.99pb4
#
DISCID=4d0d2916
DTITLE=Jim Reeves - Christmas Songbook
DYEAR=2003
DGENRE=Christmas
TTITLE0=Silver Bells
TTITLE1=Scarlet Ribbons (For Her Hair)
TTITLE2=Blue Christmas
TTITLE3=An Old Christmas Card
TTITLE4=Teach Me How To Pray
TTITLE5=C.H.R.I.S.T.M.A.S.
TTITLE6=Precious Memories
TTITLE7=Jingle Bells
TTITLE8=The Merry Christmas Polka
TTITLE9=In The Garden
TTITLE10=Silent Night
TTITLE11=O Come All Ye Faithful
TTITLE12=It Is No Secret (What God Can Do)
TTITLE13=A Beautiful Life
TTITLE14=Padre Of Old San Antone
TTITLE15=Senor Santa Claus
TTITLE16=Mary's Boy Child
TTITLE17=May The Good Lord Bless You and Keep You
TTITLE18=O Little Town Of Bethlehem
TTITLE19=The Flowers, The Sunset, The Trees
TTITLE20=An Evening Prayer
TTITLE21=White Christmas
EXTD=ID3G:   2
EXTT0=
EXTT1=
EXTT2=
EXTT3=
EXTT4=
EXTT5=
EXTT6=
EXTT7=
EXTT8=
EXTT9=
EXTT10=
EXTT11=
EXTT12=
EXTT13=
EXTT14=
EXTT15=
EXTT16=
EXTT17=
EXTT18=
EXTT19=
EXTT20=
EXTT21=
PLAYORDER=
